<svg width="39" height="26" viewBox="0 0 39 26" fill="none" xmlns="http://www.w3.org/2000/svg">
<g clip-path="url(#clip0_832_41)">
<path d="M28.8893 12.5142C28.8274 12.4486 28.7541 12.3947 28.673 12.3552C28.0921 12.008 27.5221 11.6435 26.9262 11.3266C26.5121 11.1125 26.0817 10.9316 25.639 10.7858C25.0982 10.5998 24.7856 10.1855 24.8581 9.61983C24.8744 9.53667 24.8693 9.45073 24.8432 9.3701C24.8171 9.28948 24.7708 9.21685 24.7088 9.15906C24.5066 8.95788 24.5185 8.91894 24.8094 8.75237C24.7549 8.63656 24.7101 8.51645 24.6753 8.39328C24.6597 8.30227 24.6695 8.20873 24.7034 8.12287C24.7943 7.89141 24.9133 7.67184 24.9998 7.43929C25.0658 7.25974 24.9998 7.15158 24.7835 7.14833C24.1777 7.12872 23.5839 6.97426 23.0453 6.69622C22.7558 6.57174 22.4731 6.43202 22.1984 6.27763C21.7441 5.98992 21.2909 6.03211 20.8312 6.22247C20.7371 6.26141 20.6755 6.37714 20.5987 6.45826L20.6398 6.53506L19.8827 6.48747C19.7129 6.47665 19.5214 6.41067 19.3776 6.46692C19.1201 6.56642 18.8843 6.52749 18.6377 6.48098L17.5691 6.27655C17.6567 6.53722 17.5128 6.521 17.3798 6.49287C17.1635 6.4561 16.9385 6.39986 16.7157 6.36957C16.5556 6.34686 16.3912 6.35118 16.163 6.34145L16.3945 6.64646C15.9754 6.81789 15.5146 6.86016 15.0714 6.76785C14.6281 6.67553 14.2225 6.45284 13.9067 6.12837C13.2578 5.42532 13.0793 4.54596 13.0014 3.64065C12.903 2.50387 13.1864 1.44388 13.7045 0.437981C13.7585 0.316278 13.8047 0.191282 13.8429 0.0637411L13.7564 0.00100708C13.6196 0.0750469 13.489 0.160052 13.3659 0.255188C12.776 0.769894 12.3836 1.47394 12.2562 2.24644C12.1848 2.67909 12.2021 3.1258 12.161 3.56385C12.1534 3.65038 12.0615 3.73042 12.0085 3.81263C11.9414 3.74016 11.8268 3.67202 11.8181 3.5963C11.7824 3.2848 11.777 2.96897 11.7673 2.6553C11.7608 2.47142 11.7673 2.28863 11.7673 2.03769C11.6379 2.12208 11.5283 2.23342 11.446 2.3641C11.3637 2.49478 11.3106 2.64171 11.2903 2.79482C11.1097 3.69906 11.2416 4.54921 11.7738 5.32148C11.839 5.43183 11.8968 5.54637 11.9468 5.66436L11.8387 5.72925C11.6891 5.57001 11.5517 5.39972 11.4277 5.21981C11.2665 4.95049 11.1497 4.65412 10.995 4.37831C10.9283 4.28305 10.8506 4.19593 10.7636 4.11872C10.7214 4.23878 10.6759 4.35776 10.6392 4.4789C10.6341 4.51509 10.6367 4.55194 10.6467 4.58706C10.7476 5.33771 11.0949 6.03359 11.6343 6.56534C12.2692 7.20025 13.0285 7.63939 13.844 7.99632C13.9316 8.03526 14.0679 8.12287 14.0668 8.18561C14.0784 8.57106 14.0505 8.95668 13.9835 9.33645C13.8289 10.0222 13.1485 10.2472 12.5709 9.8394C12.214 9.5863 12.0929 9.57981 11.7835 9.9097C11.4738 10.2389 11.0782 10.4749 10.6413 10.5911C10.2433 10.6993 9.84851 10.8312 9.45155 10.9632C9.2465 11.0291 9.04688 11.1108 8.8545 11.2076C8.77987 11.2466 8.73877 11.3515 8.68253 11.424L8.88479 11.5657L8.5603 11.7896L8.78528 11.9702C8.76206 12.0014 8.74246 12.0351 8.72687 12.0708C8.70308 12.1465 8.68577 12.2244 8.66522 12.3012C8.74959 12.3163 8.8426 12.3617 8.91507 12.3401C9.08591 12.2831 9.25192 12.2126 9.41153 12.1292C10.0724 11.8047 10.7419 11.4802 11.3887 11.1308C12.0355 10.7815 12.6261 10.8399 13.2545 11.1925C13.6082 11.3904 14.0225 11.491 14.4183 11.6014C14.7526 11.6944 15.0597 11.583 15.3269 11.3677C15.5649 11.1752 15.7985 10.9773 16.0375 10.7847C16.2195 10.6275 16.4382 10.5187 16.6734 10.4684C16.9086 10.4181 17.1527 10.4279 17.3831 10.497C17.6342 10.5775 17.8802 10.6732 18.1196 10.7837C18.5934 10.9816 19.0531 11.2163 19.5376 11.3829C20.2815 11.6537 21.0929 11.6772 21.8512 11.4499C22.4612 11.2585 22.962 11.3082 23.3655 11.8361C23.5612 12.0892 23.7981 12.1605 24.1291 12.0621C24.8722 11.8371 25.6055 11.8545 26.2988 12.2579C26.6103 12.4396 26.9218 12.6224 27.2442 12.7814C27.545 12.9259 27.8538 13.0534 28.1689 13.1632C28.2726 13.1874 28.3812 13.1797 28.4804 13.1411C28.5796 13.1025 28.6648 13.0348 28.7249 12.9469L29.0602 12.816C29.0117 12.7109 28.9545 12.6099 28.8893 12.5142Z" fill="#2D2D2D"/>
<path d="M36.2973 16.1496C36.1076 16.0152 35.9024 15.9041 35.6862 15.8186C35.3823 15.7104 35.06 15.6596 34.7506 15.5677C33.992 15.344 33.1849 15.344 32.4262 15.5677C31.1175 15.9516 30.0467 16.7044 29.4572 18.0024C29.388 18.1549 29.3955 18.3474 29.3112 18.488C28.9867 19.0397 29.0419 19.6508 28.9867 20.5042C29.0332 20.7875 29.1208 21.3154 29.2095 21.8432C29.3566 22.7139 29.8844 23.3477 30.5604 23.841C31.2538 24.3461 31.9752 24.7852 32.8957 24.8588C33.5565 24.9128 34.1882 25.0286 34.8664 24.8923C35.6019 24.7452 36.1838 24.3893 36.7127 23.9058C36.9106 23.7252 37.0566 23.4883 37.2481 23.2991C37.9587 22.5982 38.2864 21.721 38.4184 20.7594C38.5504 19.7979 38.373 18.912 38.0117 18.0262C37.6688 17.1717 37.0264 16.6244 36.2973 16.1496ZM35.3672 22.0985C34.7508 22.5699 33.9739 22.78 33.2039 22.6836C32.2088 22.5614 31.7026 21.9817 31.3652 21.0753C31.071 20.2889 31.2235 19.5967 31.4971 18.8817C31.5501 18.7476 31.6326 18.6271 31.7383 18.5291C32.1634 18.1365 32.5679 17.7817 33.2245 17.7082C33.7512 17.6487 34.2325 17.7471 34.702 17.851C35.3964 18.0046 35.7771 18.5865 35.9923 19.2268C36.1221 19.6118 36.1297 20.038 36.1903 20.4317C36.1254 21.1131 35.8658 21.7329 35.3672 22.1028V22.0985Z" fill="#2D2D2D"/>
<path d="M20.667 3.77379C20.615 3.8376 20.5988 4.02148 20.6421 4.05501C20.8302 4.18741 21.0264 4.30806 21.2294 4.41627C21.2889 4.5082 21.3603 4.638 21.4457 4.64449C21.7507 4.66937 22.059 4.65422 22.3889 4.65422L21.8751 5.2675L22.0817 5.35727L21.7464 5.62011C21.8275 5.6677 21.8686 5.69798 21.9141 5.71853C22.2829 5.8851 22.6582 6.03761 23.0195 6.21824C23.5871 6.49444 24.1956 6.67706 24.8214 6.75905C25.0724 6.79583 25.2411 6.72877 25.3093 6.46377C25.3472 6.32464 25.3994 6.1898 25.465 6.06141C25.6121 5.74445 25.8207 5.45982 26.0785 5.22403C26.3364 4.98824 26.6385 4.80596 26.9674 4.68775C27.7321 4.40761 28.0933 3.87978 28.0144 3.10318C27.9906 2.86631 27.8705 2.75598 27.6466 2.77221C27.395 2.78598 27.1446 2.81669 26.8971 2.86415C26.4742 2.95068 26.1291 2.87604 25.8274 2.53966C25.4888 2.15569 25.0702 1.90151 24.5186 1.98263C24.1854 2.02501 23.8477 1.95129 23.5624 1.77388C23.3602 1.65922 23.1428 1.52727 22.9221 1.50347C22.2084 1.40487 21.484 1.58287 20.8973 2.00102C20.8103 2.07929 20.7303 2.16507 20.6583 2.25736C20.8216 2.30928 20.9309 2.34064 21.0358 2.38066C21.0899 2.40121 21.1818 2.44123 21.1807 2.46827C21.171 2.70299 21.3592 2.6846 21.4944 2.72245C21.6026 2.75382 21.7107 2.77221 21.8135 2.79709L21.8243 2.87172C21.5766 3.04694 21.3257 3.21675 21.0834 3.39955C20.9309 3.50813 20.7912 3.63368 20.667 3.77379ZM27.7829 3.09453C27.7829 3.15402 27.8197 3.27841 27.7743 3.326C27.6892 3.42088 27.5751 3.4848 27.4498 3.50771C27.357 3.52472 27.2612 3.50787 27.1799 3.46024C27.0985 3.4126 27.0369 3.33733 27.0063 3.24812L27.7829 3.09453Z" fill="#2D2D2D"/>
<path d="M10.8338 13.3677C10.959 13.3502 11.0818 13.3179 11.1994 13.2715C11.5476 13.0833 11.8916 12.8875 12.2258 12.6766C12.6801 12.3899 13.1593 12.2007 13.7033 12.2439C13.9638 12.2706 14.2227 12.3114 14.4788 12.3661C15.2068 12.5111 15.8244 12.3467 16.3392 11.7842C16.6224 11.4964 16.9233 11.2266 17.2402 10.9763C17.3873 10.8519 17.3548 10.7394 17.2067 10.6994C17.0396 10.6437 16.86 10.6377 16.6896 10.6821C16.4891 10.76 16.3082 10.8811 16.1597 11.0368C15.449 11.7648 14.6454 12.1011 13.62 11.7777C13.2842 11.6737 12.9377 11.608 12.5871 11.582C12.3564 11.5551 12.1228 11.5925 11.9122 11.6901C11.3951 11.9703 10.8846 12.2829 10.7743 12.9556L10.9506 13.0238L10.7981 13.2855L10.8338 13.3677Z" fill="#2D2D2D"/>
<path d="M26.0901 9.51498C25.8392 9.49876 25.5904 9.45117 25.3406 9.4317C25.1686 9.41872 25.0961 9.51282 25.1167 9.6848C25.132 9.88038 25.2155 10.0644 25.3527 10.2045C25.49 10.3447 25.6721 10.4322 25.8673 10.4517C26.1258 10.4809 26.3876 10.4755 26.6472 10.4993C27.281 10.5566 27.9159 10.6139 28.5487 10.6896C28.7455 10.7134 28.9315 10.7837 28.8861 10.4787L29.3004 10.5501L29.2052 10.2624L29.6259 10.2224C29.5995 10.1095 29.5379 10.0079 29.4501 9.93231C29.3622 9.8567 29.2526 9.81093 29.1371 9.80161C28.5173 9.70535 27.8932 9.63504 27.2691 9.57555C26.8776 9.5377 26.4849 9.54202 26.0901 9.51498Z" fill="#2D2D2D"/>
<path d="M12.0052 21.3435C12.7039 21.2689 13.4038 21.2072 14.1036 21.1467C15.2706 21.045 16.4377 20.952 17.6037 20.8481C17.9444 20.8178 18.0233 20.74 18.0515 20.3928C18.123 19.5921 18.0268 18.7854 17.7692 18.024C17.436 17.0625 16.7676 16.3161 15.9023 15.7959C15.0121 15.2605 14.0192 15.1015 12.9819 15.2443C12.2001 15.3428 11.4665 15.6762 10.8782 16.2004C10.5483 16.4946 10.279 16.858 9.99774 17.202C9.50236 17.8077 9.29253 18.5345 9.19518 19.2895C9.08799 20.1033 9.13979 20.9302 9.34769 21.7242C9.62458 22.794 10.1935 23.6711 11.0891 24.2714C11.2453 24.3762 11.4082 24.4705 11.5769 24.5537C11.6678 24.5992 11.7597 24.6403 11.8527 24.6781C12.5159 24.9457 13.2309 25.0603 13.9446 25.0134C14.0051 25.0134 14.0668 25.0199 14.1263 25.0134C14.1466 25.0123 14.1668 25.0102 14.1868 25.0069C14.7882 24.9118 15.4188 24.8988 15.9845 24.6944C16.9266 24.3591 17.5107 23.5879 17.9876 22.7366C18.072 22.5884 18.0515 22.4846 17.9065 22.4002C17.6264 22.238 17.3549 22.0574 17.0639 21.9168C16.4269 21.6085 16.415 21.6096 15.9326 22.1331C15.6144 22.4706 15.1857 22.6828 14.7244 22.7312C14.436 22.7709 14.1497 22.8026 13.8656 22.8264C13.0003 22.8989 12.2864 22.6252 11.7619 21.9178C11.512 21.575 11.5866 21.3835 12.0052 21.3435ZM11.4741 18.9694C11.6396 18.2814 12.1231 17.9094 12.744 17.6552C13.3416 17.4072 14.0109 17.3949 14.6173 17.6206C15.2868 17.8531 15.753 18.2901 15.8969 19.0775C15.4523 19.1046 15.0424 19.1327 14.6314 19.1554C13.6709 19.2073 12.7101 19.2574 11.7489 19.3057C11.4741 19.3209 11.4093 19.2408 11.4741 18.9694Z" fill="#2D2D2D"/>
<path d="M7.94703 21.4376C7.79885 20.9671 7.5663 20.5724 7.15637 20.2792C7.04821 20.2024 6.92166 20.1116 7.07308 19.9547C7.31264 19.7117 7.49964 19.422 7.62245 19.1037C7.74526 18.7853 7.80125 18.445 7.78695 18.1041C7.78695 17.613 7.69501 17.1977 7.37053 16.8386C6.6134 16.0004 5.73512 15.4228 4.54426 15.4476C3.89529 15.4617 3.23551 15.413 2.58113 15.4001C2.14199 15.3914 1.70177 15.4001 1.26264 15.3925C1.08417 15.3925 1.01711 15.4531 1.01495 15.6477C1.00629 16.8256 0.980333 18.0046 0.960864 19.1836C0.94464 20.1722 0.931663 21.1597 0.912194 22.1483C0.912194 22.3278 0.864602 22.5063 0.871092 22.6891C0.888397 23.1909 0.921927 23.6917 0.947885 24.1936H0.919766C0.919766 24.3559 0.930582 24.5181 0.919766 24.6803C0.900297 24.9021 0.973844 24.9962 1.20747 24.9648C1.37593 24.9416 1.54648 24.9377 1.71583 24.9529C2.92941 25.0611 4.1419 24.994 5.35007 24.8934C6.66964 24.7853 7.54792 24.0844 7.96975 22.8221C8.11216 22.3703 8.10419 21.8845 7.94703 21.4376ZM3.18142 17.9397C3.18142 17.7234 3.26687 17.6152 3.51348 17.6487C3.72149 17.6652 3.9304 17.667 4.13866 17.6541C4.37553 17.6769 4.69785 17.7007 5.01801 17.7418C5.2246 17.7677 5.39333 17.8943 5.39658 18.1009C5.39973 18.3651 5.36327 18.6283 5.28842 18.8818C5.25775 18.9394 5.21397 18.989 5.16061 19.0266C5.10725 19.0641 5.04581 19.0886 4.98124 19.0981C4.45557 19.1565 3.92558 19.1825 3.39667 19.2182C3.36806 19.224 3.33846 19.2229 3.31037 19.2149C3.28229 19.2069 3.25654 19.1923 3.23532 19.1722C3.21409 19.1522 3.19801 19.1273 3.18845 19.0997C3.17888 19.0721 3.1761 19.0426 3.18035 19.0137C3.18035 18.6579 3.17818 18.2988 3.18142 17.9397ZM4.90444 22.7432C4.59726 22.7972 4.28035 22.8005 3.96776 22.8264V22.781C3.76009 22.781 3.5535 22.781 3.34691 22.781C3.20522 22.781 3.16088 22.7172 3.16628 22.582C3.18034 22.2132 3.19549 21.8443 3.19116 21.4766C3.18542 21.4433 3.1871 21.4091 3.19609 21.3766C3.20509 21.344 3.22116 21.3138 3.24317 21.2882C3.26519 21.2626 3.29259 21.2421 3.32343 21.2283C3.35426 21.2145 3.38777 21.2077 3.42154 21.2083C3.97641 21.1597 4.53237 21.1067 5.08832 21.0829C5.34033 21.0721 5.57937 21.4182 5.61506 21.7794C5.6659 22.3083 5.42686 22.6523 4.90444 22.7432Z" fill="#2D2D2D"/>
<path d="M27.9039 22.1667C27.495 21.9676 27.0591 21.8205 26.6319 21.6594C26.4156 21.575 26.249 21.6594 26.0846 21.8292C25.8474 22.0851 25.5826 22.314 25.295 22.5117C24.7878 22.8427 24.2026 22.8578 23.6261 22.7788C23.1934 22.7204 22.737 22.6847 22.3909 22.3754C21.5353 21.6107 21.3244 20.6448 21.5753 19.5632C21.6271 19.3352 21.7132 19.1164 21.8306 18.9142C21.9691 18.6784 22.1194 18.4134 22.3357 18.2653C23.2692 17.6282 24.619 17.4962 25.5892 18.1755C25.6964 18.2577 25.813 18.3271 25.9364 18.3821C25.9792 18.4009 26.0254 18.4107 26.0722 18.4107C26.1189 18.4107 26.1651 18.4009 26.2079 18.3821C26.6546 18.0489 27.0948 17.7061 27.5221 17.3481C27.551 17.3061 27.5688 17.2575 27.5737 17.2068C27.5786 17.156 27.5706 17.1049 27.5502 17.0582C27.3166 16.7878 27.1002 16.4579 26.7985 16.301C25.8942 15.8273 24.9749 15.3427 23.9062 15.4541C22.8711 15.4401 21.9842 15.8305 21.1384 16.3562C20.336 16.8447 19.7596 17.631 19.5354 18.5432C19.4236 18.9418 19.3394 19.3477 19.2834 19.7579C19.2034 20.4069 19.1871 21.0504 19.4089 21.6799C19.5845 22.1908 19.8326 22.6738 20.1455 23.1142C20.4472 23.5338 20.7598 23.9275 21.1946 24.2152C22.3455 24.9724 23.6001 25.1552 24.9435 24.9334C26.315 24.7063 27.3696 24.0303 28.0802 22.8308C28.2846 22.4911 28.2695 22.3451 27.9039 22.1667Z" fill="#2D2D2D"/>
</g>
<defs>
<clipPath id="clip0_832_41">
<rect width="37.5938" height="25.0243" fill="white" transform="translate(0.871094)"/>
</clipPath>
</defs>
</svg>
