<svg width="84" height="23" viewBox="0 0 84 23" fill="none" xmlns="http://www.w3.org/2000/svg">
<path fill-rule="evenodd" clip-rule="evenodd" d="M73.6226 7.33735C73.6226 6.94583 73.3074 6.62878 72.9154 6.62878H71.8675C71.4755 6.62878 71.1603 6.94717 71.1603 7.33869V18.2981C71.1603 18.69 71.4764 19.0071 71.8675 19.0071H72.9163C73.3074 19.0071 73.6226 18.6882 73.6226 18.2972V7.33735ZM74.9586 7.62853V8.14981C74.9586 8.36475 75.1348 8.5391 75.3506 8.5391H82.5795C82.9094 8.5391 83.177 8.27289 83.177 7.94335V7.06132C83.177 6.73134 82.9063 6.43302 82.5795 6.46557C82.5795 6.46557 75.5901 7.1514 75.3662 7.17637C75.2537 7.18628 75.1491 7.23842 75.0735 7.32231C74.9979 7.4062 74.9568 7.51561 74.9586 7.62853ZM69.1059 19.0075C67.3075 19.0075 66.1753 17.6435 66.1753 16.1255L66.1744 11.7404H65.6598C65.5947 11.7404 65.5302 11.7277 65.47 11.7028C65.4098 11.6779 65.3551 11.6415 65.309 11.5954C65.263 11.5494 65.2264 11.4948 65.2014 11.4347C65.1764 11.3745 65.1635 11.3101 65.1635 11.2449V10.511C65.1635 10.2367 65.3864 10.016 65.6616 10.016L66.1744 10.0169L66.1735 7.32085C66.1735 6.93914 66.4807 6.62967 66.8633 6.62967H67.8858C68.2667 6.62967 68.5757 6.94137 68.5757 7.32308V10.0173L70.1685 10.0169C70.4428 10.0169 70.6666 10.2372 70.6666 10.5119V11.2458C70.6666 11.5205 70.4437 11.7413 70.1703 11.7413L68.5757 11.7408L68.5775 15.7969C68.5775 16.5929 69.06 17.1364 69.9215 17.1364H70.0669C70.3647 17.1364 70.6069 17.3759 70.6069 17.6738V18.4697C70.6069 18.7685 70.3656 19.008 70.0678 19.008H69.1059V19.0075ZM52.2643 9.70072C49.3569 9.70072 47.7266 11.9758 47.7266 14.3735C47.7266 16.9286 49.4728 19.1774 52.2834 19.1774C54.2072 19.1774 56.1032 18.1638 56.4613 16.5001C56.5099 16.2754 56.3587 15.9811 56.0426 15.9793L54.6674 15.9802C54.4181 15.9802 54.2143 16.0997 54.0917 16.2798C53.6979 16.8564 53.1222 17.1628 52.2705 17.1628C51.0661 17.1628 50.2318 16.2143 50.1689 15.1624H56.0136C56.5518 15.1624 56.7931 14.8698 56.7931 14.3731C56.7931 12.036 55.4085 9.70072 52.2643 9.70072ZM52.2643 11.5772C53.3372 11.5772 54.2638 12.3406 54.3579 13.3738H50.1863C50.2804 12.3406 51.1914 11.5772 52.2643 11.5772ZM78.8997 9.70072C75.9918 9.70072 74.3611 11.9758 74.3611 14.3735C74.3611 16.9286 76.1073 19.1774 78.918 19.1774C80.8417 19.1774 82.7378 18.1638 83.0958 16.5001C83.1444 16.2754 82.9933 15.9811 82.6771 15.9793L81.3028 15.9802C81.0526 15.9802 80.8488 16.0997 80.7262 16.2798C80.3324 16.8564 79.7568 17.1628 78.905 17.1628C77.7006 17.1628 76.8663 16.2143 76.8034 15.1624H82.6481C83.1864 15.1624 83.4276 14.8698 83.4276 14.3731C83.4276 12.036 82.0426 9.70072 78.8997 9.70072ZM78.8997 11.5772C79.9717 11.5772 80.8992 12.3406 80.9924 13.3738H76.8208C76.9144 12.3406 77.8255 11.5772 78.8997 11.5772Z" fill="#2D2D2D"/>
<path fill-rule="evenodd" clip-rule="evenodd" d="M64.2083 6.75138H45.2748C44.8445 6.75138 44.4971 7.10098 44.4971 7.5313L44.5617 14.9671C44.5617 14.9671 40.4824 7.59729 40.2697 7.22183C40.0695 6.86821 39.6401 6.54224 39.0452 6.54224H37.4885C37.0577 6.54224 36.7095 6.89184 36.7095 7.32216L36.7104 18.2272C36.7104 18.6575 37.0582 19.0067 37.4889 19.0067H38.4874C38.6942 19.0062 38.8923 18.9237 39.0383 18.7772C39.1843 18.6307 39.2662 18.4323 39.266 18.2254L39.2031 10.581C39.2031 10.581 43.3221 18.0234 43.4982 18.3169C43.7359 18.7133 44.1386 19.0067 44.7209 19.0067H46.151C46.5822 19.0067 46.9296 18.6575 46.9296 18.2272L46.9287 8.59973H64.2092C64.2789 8.59991 64.3481 8.58631 64.4126 8.55972C64.4772 8.53313 64.5358 8.49407 64.5852 8.44478C64.6347 8.39549 64.6739 8.33693 64.7006 8.27246C64.7274 8.20799 64.7411 8.13888 64.7411 8.06908V7.28203C64.7408 7.14101 64.6845 7.00591 64.5845 6.9064C64.4846 6.8069 64.3493 6.75114 64.2083 6.75138Z" fill="#2D2D2D"/>
<path fill-rule="evenodd" clip-rule="evenodd" d="M61.1436 11.4862C61.9667 11.4862 62.5826 11.785 62.8046 12.3009C62.9108 12.5493 63.1172 12.597 63.4004 12.597H64.5326C64.7208 12.597 64.9339 12.436 64.9339 12.1912C64.9339 10.8749 63.3652 9.69984 61.1427 9.69984C58.8435 9.69984 57.3341 10.7955 57.3341 12.5395C57.3341 13.8746 58.3878 14.6688 59.6845 15.0077C60.2758 15.1629 61.2854 15.4117 61.7763 15.5406C62.3061 15.6797 62.7797 15.8411 62.7797 16.2955C62.7797 17.0112 62.0238 17.2551 61.2006 17.2551C60.4194 17.2551 59.6417 16.906 59.4187 16.3495C59.289 16.0262 59.0633 15.9793 58.7204 15.9793H57.569C57.3679 15.9793 57.137 16.1519 57.137 16.4141V16.5622C57.137 17.8362 58.8457 19.1699 61.2024 19.1699C62.8737 19.1699 65.2028 18.4756 65.2028 16.234C65.2028 14.9354 64.3346 14.0365 62.921 13.6779C62.3681 13.5379 61.0397 13.1999 60.7507 13.125C60.2352 12.9917 59.7554 12.8235 59.7554 12.3821C59.7554 11.7136 60.373 11.4862 61.1436 11.4862ZM19.2322 4.23192C19.3328 4.23192 19.4294 4.19194 19.5005 4.12077C19.5717 4.0496 19.6117 3.95308 19.6117 3.85244C19.6117 3.75179 19.5717 3.65527 19.5005 3.58411C19.4294 3.51294 19.3328 3.47296 19.2322 3.47296C19.1315 3.47296 19.035 3.51294 18.9639 3.58411C18.8927 3.65527 18.8527 3.75179 18.8527 3.85244C18.8527 3.95308 18.8927 4.0496 18.9639 4.12077C19.035 4.19194 19.1315 4.23192 19.2322 4.23192ZM14.1362 3.55991C14.2209 3.55991 14.3021 3.52627 14.3619 3.4664C14.4218 3.40652 14.4555 3.32531 14.4555 3.24063C14.4555 3.15595 14.4218 3.07474 14.3619 3.01486C14.3021 2.95499 14.2209 2.92135 14.1362 2.92135C14.0515 2.92135 13.9703 2.95499 13.9104 3.01486C13.8505 3.07474 13.8169 3.15595 13.8169 3.24063C13.8169 3.32531 13.8505 3.40652 13.9104 3.4664C13.9703 3.52627 14.0515 3.55991 14.1362 3.55991ZM10.316 11.3672L10.1603 11.2004C10.5938 10.7977 11.0526 10.1556 11.1271 9.77877C11.1962 9.42827 11.7001 9.48402 11.6042 9.86528C11.4825 10.3527 10.8859 10.9413 10.316 11.3672ZM7.08258 3.6928C6.28482 4.03794 6.16799 4.85577 6.72763 5.34673C7.40231 5.93803 8.51488 5.42298 8.40786 4.51776C9.31264 4.56413 9.89635 3.62948 9.75232 2.97308C10.155 2.62838 10.1951 1.89171 9.71219 1.60231C9.19447 1.29239 8.70708 1.411 8.39672 2.00899C7.56774 1.94879 6.77356 2.60073 7.08258 3.6928L6.69864 3.52513C6.19252 2.46651 7.07901 1.38514 8.16617 1.63441C8.24494 1.46387 8.3596 1.31234 8.50232 1.19019C8.64504 1.06804 8.81246 0.978152 8.99312 0.926667C9.17378 0.875182 9.36343 0.863317 9.5491 0.89188C9.73478 0.920444 9.91209 0.988762 10.0689 1.09217C10.7668 1.5149 10.9144 2.60563 10.1724 3.1345C10.5224 4.15255 9.82456 4.98419 8.76282 4.88921C8.6384 6.19844 7.4032 6.36745 6.60544 5.74583C6.15506 5.39489 5.9709 4.90839 5.88394 4.54139C5.79253 4.15299 5.79253 3.80517 5.40903 3.40518C5.12052 3.10329 4.6037 3.11354 4.6037 3.11354C4.6037 2.16239 3.71408 1.29194 2.60953 1.71334C2.21801 1.37622 1.73418 1.34278 1.3877 1.75972C1.18614 2.00185 1.07511 2.63819 1.69628 2.92982C1.66417 3.7967 2.32503 4.35009 3.29135 4.27339C3.32925 4.73403 3.83983 5.16212 4.29244 5.22321L4.28843 5.45465C3.80549 5.40827 3.54418 5.57683 3.22223 5.97593C2.08646 5.92242 1.29094 6.42765 1.32394 7.24235C0.525734 7.39397 0.37635 8.22963 0.828961 8.67466C1.28157 9.1197 1.94511 8.94534 2.17119 8.41379C2.97652 8.56719 3.68777 7.99017 3.72032 7.32441C4.47259 7.32441 4.80169 7.02697 4.92476 6.33534L5.20881 6.35853C5.29265 7.10323 4.94795 7.81001 4.05031 7.72573C4.02712 8.61491 3.16426 9.11211 2.35937 8.80487C1.98345 9.51077 1.12238 9.79304 0.399537 9.10409C-0.298777 8.43877 -0.0437095 7.29943 0.869094 7.02341C0.890052 6.15162 1.53396 5.32354 2.78478 5.64282C2.78478 5.64282 2.94576 5.25353 3.33728 5.23034C3.07641 5.12332 2.87887 4.97929 2.82491 4.71084C1.88134 4.91196 1.08002 4.0433 1.2945 3.16884C0.443238 2.72068 0.429414 1.87967 0.851703 1.37979C1.29183 0.859397 2.02493 0.744348 2.68088 1.30532C3.79167 0.689946 5.04739 1.44355 4.97069 2.70909C5.74749 2.65736 6.21927 3.3365 6.13276 4.04374C6.26074 3.73204 6.41057 3.58756 6.69775 3.52513L7.08258 3.6928Z" fill="#2D2D2D"/>
<path fill-rule="evenodd" clip-rule="evenodd" d="M8.99111 2.17407L9.17884 2.3083C8.81452 3.07707 8.16971 3.89355 7.61766 4.3426L7.40674 4.18385C7.79826 3.54707 8.63838 2.49603 8.99111 2.17407ZM3.55619 6.39652L3.68283 6.58425C3.22264 7.05604 2.37093 7.68523 1.91876 7.90374L1.74218 7.71199C2.17963 7.2402 3.01529 6.6226 3.55619 6.39652ZM4.65673 4.11205L4.43466 4.38674C3.83222 3.99165 2.64339 2.92947 2.37539 2.54642L2.56268 2.35512C3.13836 2.64675 4.26164 3.64829 4.65673 4.11205ZM3.53925 14.1917C3.60792 14.5364 3.5504 14.9181 3.8612 15.2909C3.9709 15.4216 4.57424 16.2157 5.01169 16.626C4.41727 16.8601 3.22844 17.3435 2.37271 17.4509C2.20148 17.4728 2.00884 17.5928 1.84742 17.6851C1.74039 17.8679 1.6298 18.1947 1.58343 18.564C1.55043 18.828 1.55489 19.1214 1.55489 19.421C1.55489 19.685 1.69446 20.5149 1.98966 21.0723C2.28531 21.6297 2.56892 21.879 2.91808 22.0417C2.98719 22.0114 3.13925 21.9887 3.37649 21.9833C4.02263 21.9686 4.52831 22.3258 4.75127 22.6321C4.83644 22.7499 5.00767 22.773 5.23286 22.773C5.75415 22.773 6.32761 22.6014 6.87208 22.394C6.98846 22.2981 7.31666 22.0796 7.63906 21.8263C7.96102 21.574 9.75586 20.0516 10.5501 19.6672C10.9683 19.8937 11.6551 20.1853 12.3641 20.1853C12.4051 20.1853 12.5415 20.1871 12.6865 20.155C12.9081 20.1046 13.1921 20.0061 13.5493 19.9356C14.1892 19.8112 14.9397 19.7015 15.1587 19.7046C15.7473 19.714 17.4726 19.7586 17.8815 19.7586C18.3105 19.7586 18.9223 19.7211 19.1559 19.6984C19.5171 19.5789 20.322 19.3559 21.093 19.0001C21.8622 18.6594 23.4818 17.5352 23.7467 17.2784C23.8756 17.1633 23.9897 17.0371 24.074 16.9248C24.1057 16.8811 24.1173 16.8637 24.1173 16.8289L24.1083 15.6931C24.1083 15.6931 24.4954 15.2637 24.6435 15.1148C24.6577 15.1009 24.6586 15.0809 24.6564 15.067C24.5899 14.8468 24.5235 14.1614 24.5614 13.4662L24.1694 13.2834C24.1517 14.0136 23.9351 14.7251 23.5429 15.3413C22.9601 15.4336 21.848 15.7783 21.4475 16.234L21.6678 16.2969C22.0437 16.0895 22.4464 15.9442 22.9066 15.9442C23.3133 15.9442 23.4925 16.0512 23.4925 16.1654C23.4925 16.2456 23.4158 16.4378 23.3864 16.4989C23.3512 16.5685 23.328 16.6572 23.2598 16.7312C22.704 17.341 22.0528 17.8564 21.3316 18.2572C20.8206 18.543 20.3385 18.7352 19.5849 18.9488C19.3593 19.0126 19.0498 19.104 18.8487 19.1735C18.5646 19.1646 17.0806 19.1214 16.2137 19.1214C15.3473 19.1214 13.56 19.2476 12.9919 19.3912C12.7342 19.4563 12.67 19.5602 12.3703 19.5602C11.8107 19.5602 11.0762 19.2761 10.6254 19.0576C10.5603 19.0768 10.3971 19.149 10.2343 19.2302C9.91417 19.3894 9.20247 20.3771 8.78866 20.0783C8.57729 20.5113 7.66493 20.9216 7.35278 21.3706C7.38712 21.1356 7.75545 19.6106 7.79023 19.3055C7.79648 19.2516 7.80094 19.2079 7.7666 19.1504C7.4335 18.5938 6.50241 18.2402 5.97756 18.1377C5.82327 18.1073 5.74746 18.0864 5.64401 18.0628L4.81593 17.8126L4.0476 18.0628L4.9341 18.2327L3.80903 18.9782C4.00435 18.9033 5.21681 18.5671 5.30644 18.5403C5.40544 18.5109 5.53788 18.4819 5.68235 18.5323C5.84735 18.5898 6.31512 18.6969 6.59338 18.7936C6.75703 18.8503 7.02503 19.1508 7.09415 19.3109C7.12224 19.3778 7.13294 19.5182 7.15123 19.8291C7.16237 20.0248 7.11243 20.2968 7.06516 20.5082C6.9412 21.0611 6.68969 21.4932 6.61032 21.6475C6.50062 21.8602 6.34901 21.9289 6.19963 21.9994C5.95437 22.1144 5.65471 22.1867 5.3216 22.1911C5.09284 22.1938 4.93989 22.1817 4.84224 22.0493C4.53499 21.6346 3.77603 21.2324 3.00102 21.3822C2.52566 21.0946 2.05432 20.1662 2.05432 19.4268C2.05432 18.9836 2.27818 18.2848 2.39858 17.9339C3.1727 17.8304 4.72094 17.2405 5.47411 16.8984C5.63197 16.8904 6.06496 16.7375 6.47877 16.7375C7.49146 16.7375 8.49613 17.6231 9.10615 18.2215C9.20604 18.057 9.39377 17.8077 9.91149 17.8077C10.6285 17.8077 11.0388 18.4592 11.2444 19.1298L11.618 18.8583C11.5435 18.4414 11.346 18.0564 11.0508 17.7528C10.8033 17.5053 10.332 17.2998 9.96322 17.2998C9.74159 17.2998 9.51105 17.3493 9.36568 17.3493C8.85331 17.3493 8.64462 17.121 8.26648 16.8605C7.85801 16.5783 7.09816 16.1689 6.55592 16.1689C6.20676 16.1689 6.0498 16.3058 5.76173 16.3067C5.3381 16.3094 5.18069 16.1332 4.9778 15.8809C4.88906 15.7703 4.46008 15.3894 4.34548 15.2365C4.27948 15.1486 4.16265 14.7888 4.12029 14.6086L3.53925 14.1917Z" fill="#2D2D2D"/>
<path fill-rule="evenodd" clip-rule="evenodd" d="M4.12144 14.6086C4.24451 14.7402 4.36313 14.8855 4.51697 15.0033C4.66546 15.1156 4.8532 15.2133 5.02934 15.3132C5.27816 15.4541 5.56043 15.6155 5.84047 15.7042C6.08573 15.7783 6.40412 15.8086 6.70289 15.8086C7.12874 15.8086 7.6313 15.7207 8.04735 15.9147C8.32649 16.0454 8.34522 16.3397 8.56685 16.4257C8.91199 16.56 9.87117 16.5912 10.4027 16.5912C11.4555 16.5912 12.5944 16.4579 13.2673 16.2969L12.9391 15.9352C12.4736 16.0093 11.1073 16.1582 10.4803 16.1582C9.59693 16.1582 8.76261 16.0173 8.76261 15.6512C8.76261 15.3988 9.03462 15.0336 9.55234 15.0336C10.1084 15.0336 10.949 15.3698 11.1041 15.4157C11.2598 15.4621 11.3231 15.4496 11.4208 15.4046L11.7463 15.2365C11.3142 15.0354 9.81008 14.5181 9.28612 14.5181C9.03819 14.5181 8.90396 14.5538 8.74299 14.7611C8.54187 15.0198 8.00498 15.2556 7.14747 15.2556C6.67747 15.2556 6.00502 15.1718 5.85742 15.1112C5.59923 15.005 5.09355 14.7116 4.77026 14.478C4.35332 14.1774 3.99034 13.8438 3.74062 13.4546C3.66851 13.343 3.63054 13.2128 3.63137 13.08C3.63226 12.9788 3.6608 12.8847 3.67106 12.8102C3.74552 12.9137 3.82624 12.9886 3.92925 13.0853C4.38186 13.5259 5.04985 13.8568 5.73657 13.9883C5.93233 14.0258 6.10624 14.0552 6.29977 14.0552C6.59274 14.0552 6.86342 13.8983 7.03555 13.7444L6.76576 13.4309C6.67881 13.4572 6.49865 13.4572 6.38004 13.4572C5.38295 13.4572 4.11742 12.8048 3.82624 12.0508C3.79725 11.9768 3.76247 11.9357 3.79145 11.8671C3.82044 11.7975 3.85656 11.6508 3.87752 11.5157C3.93593 11.5826 4.05633 11.6838 4.20928 11.7823C4.57985 12.02 5.28664 12.3491 5.42487 12.4356C5.78116 12.3331 6.04916 12.2136 6.26098 12.1039C6.51375 11.9711 6.79465 11.9009 7.08014 11.8992C7.80878 11.8992 8.64622 12.3148 9.43283 12.7023L9.96972 12.4905C9.27185 12 7.75304 11.3132 6.9089 11.3132C6.41081 11.3132 5.94259 11.6776 5.60904 11.6776C5.19968 11.6776 4.0269 11.1059 4.0269 10.6292C4.0269 10.2626 4.78586 10.0548 6.00636 9.90456C5.794 10.2184 5.59422 10.5407 5.40748 10.8704L5.71829 11.043C7.62996 8.27471 9.61833 6.47719 11.291 5.382C11.8983 4.98379 12.037 4.75147 12.2493 4.31714C12.7674 3.25807 13.2562 2.44381 14.1061 2.44381C14.503 2.44381 14.8272 2.66633 15.0497 2.9428L15.6651 3.12652L15.0421 3.54836L15.6789 3.8012C14.8481 4.03442 13.7128 4.84243 13.2535 6.02814C12.3679 6.07541 11.9407 6.79201 11.6513 7.39267C11.456 7.79757 11.1456 7.95944 10.693 8.26579L7.073 10.7893L7.5711 10.8579L10.9155 8.61852C11.575 8.17349 11.889 7.84529 12.0468 7.52913C12.3572 6.90885 12.6912 6.44776 13.3471 6.44776C13.6695 6.44776 14.0147 6.58599 14.2907 6.84641L14.8771 7.03816L14.2368 7.42969L14.7737 7.75922C13.2397 8.23993 12.2885 9.33913 11.736 11.4408L12.1431 11.5331C12.3469 10.837 12.5476 10.1989 12.907 9.63567C13.7962 9.62541 14.6961 9.59286 15.5794 9.59286C17.9366 9.59286 19.8933 9.6923 20.9492 10.0031L20.5756 9.35429C19.4456 9.16254 17.8064 9.0631 15.5794 9.0631C14.8325 9.0631 14.0762 9.09075 13.3248 9.09878C13.8096 8.58552 14.5079 8.15386 15.583 7.82031L14.82 7.40025L15.6673 6.93025L14.5128 6.50083C14.3108 6.31933 14.0597 6.15301 13.744 6.07363C14.1132 4.93742 15.373 4.27343 16.5801 3.81592L15.7346 3.47122L16.5877 3.00434L15.2744 2.58517C14.9315 2.1825 14.6011 1.99878 14.0945 1.99878C12.8767 1.99878 12.3648 3.05651 11.8818 3.99384C11.6277 4.48748 11.4667 4.69528 11.0346 4.97844C10.0981 5.59114 8.90396 6.52803 7.76418 7.72801C7.16843 7.29858 5.95195 6.04331 5.62108 5.35837C5.49087 5.51935 5.362 5.87029 5.362 5.87029C5.48641 6.00184 6.92005 7.44975 7.45248 8.06334L7.33208 8.19801C6.76442 8.31083 5.28886 8.45263 4.78676 8.38441L4.50493 8.88473C4.87995 8.84772 6.3457 8.67515 6.95394 8.63947C6.76754 8.8653 6.58703 9.09592 6.41259 9.3311C4.52723 9.54515 3.26839 9.93176 3.26839 10.6283C3.26839 10.7429 3.31432 10.8731 3.31432 10.9962C3.31432 11.2878 3.20551 11.3948 2.99816 11.5255C2.86304 11.6102 2.85457 11.6695 2.91209 11.7498C2.97006 11.8314 3.26081 12.2613 3.26081 12.346C3.26081 12.4851 3.12212 12.6256 3.0102 12.75C2.91209 12.8597 2.91611 12.8887 2.99281 13.0269L3.53951 14.1885L4.12144 14.6086ZM27.4619 8.14183C27.3415 8.26847 27.2354 8.40358 27.1462 8.54717L26.8426 8.12086C27.8566 6.76972 30.5344 6.13561 32.1053 6.02413V5.29951C31.906 5.36104 31.6911 5.43016 31.4922 5.47743C31.2104 5.54521 30.9517 5.60809 30.7323 5.60229C30.513 5.59694 30.335 5.50909 30.253 5.39181C30.0421 5.09082 30.2378 4.63597 30.9281 4.21056L30.3836 3.75795C29.9636 4.30287 29.5498 4.90397 29.1288 5.26294C28.7462 5.58936 28.3453 5.75212 28.0216 5.51043C27.8472 5.38022 27.7817 5.32091 27.7643 4.98112C27.7875 4.48213 28.0911 3.7196 28.3587 3.22864L27.7143 3.15283C27.5997 3.90466 27.2916 4.54589 26.9616 5.07476C26.5505 5.73473 26.0203 6.1976 25.4745 6.57663L25.1164 6.22391C25.557 5.96393 26.1086 5.5412 26.4881 4.95838C26.9282 4.28146 27.2854 3.44446 27.2858 2.68416L29.1498 2.86075C28.888 3.19341 28.4559 3.95237 28.2918 4.49729C28.2066 4.78179 28.2107 5.00787 28.3137 5.08502C28.5112 5.23306 28.8572 4.99672 29.193 4.63686C29.6666 4.12807 30.1304 3.36063 30.335 3.08683L31.6831 4.20521C31.0837 4.52271 30.5031 4.88524 30.6186 5.08903C30.7243 5.27454 31.1083 5.21879 31.5288 5.08992C31.8771 4.98238 32.2124 4.83656 32.5285 4.65515V6.47719C31.8788 6.46827 30.7783 6.58956 29.7183 6.91107C29.9703 7.26692 30.694 7.39758 31.1537 7.4609L30.9232 8.93958C29.7629 8.45219 28.8679 8.16858 27.4619 8.14183L27.927 7.74228C28.9634 7.76368 30.0019 8.06468 30.5905 8.36077L30.6748 7.80114C30.1446 7.73113 29.4766 7.42968 29.1939 7.0881C28.7324 7.26157 28.2954 7.47784 27.927 7.74228L27.4619 8.14183Z" fill="#2D2D2D"/>
<path fill-rule="evenodd" clip-rule="evenodd" d="M21.9075 12.8396L22.3392 11.9076C21.8317 11.3071 21.3673 10.6714 20.9497 10.0053L20.576 9.35646C19.7127 7.7168 20.0271 6.93331 19.5664 6.21181C19.1856 5.61561 17.3359 5.98662 17.0291 6.05083L17.5642 5.16478L16.5096 5.24861L17.4033 4.18687C17.5009 4.04864 17.5469 3.92244 17.6503 3.55411C17.8082 2.99447 18.2889 2.03931 19.6967 2.03931C21.2592 2.03931 21.7434 3.3035 22.4248 3.85288C23.3551 4.6043 24.2528 5.3952 25.1155 6.2234L25.4736 6.57613C25.9351 7.04791 26.4073 7.53308 26.8426 8.12036L27.1462 8.54666C29.0271 11.2927 31.3642 16.5416 32.3974 18.9456C32.4973 19.1779 32.5687 19.4142 32.6306 19.5935C31.8507 19.1591 31.0929 18.6861 30.36 18.1764L29.8962 17.8499C29.6053 17.6403 29.3176 17.4261 29.0334 17.2074L28.5567 16.8328C28.2699 16.6034 27.9873 16.3688 27.709 16.1291L28.6494 21.6064C28.7186 21.9288 28.9941 21.8757 29.2167 21.5917C29.4392 21.3076 29.5234 21.23 29.4392 20.855L28.5567 16.8328L29.0334 17.2074L29.8793 20.6249C29.9613 20.9331 30.0916 21.0307 30.4519 21.0463C30.8126 21.0619 30.8893 20.9237 30.8126 20.6865L29.8967 17.8499L30.3604 18.1764L31.2273 20.7239C31.4498 21.3763 31.2273 21.453 30.8362 21.453C30.4452 21.453 30.0924 21.3607 29.8775 21.4994C29.663 21.6372 29.3937 22.014 29.0717 22.3444C28.7872 22.6351 28.3739 22.5593 28.2896 22.0135L27.2501 15.7251C26.582 15.1275 25.9483 14.4924 25.3523 13.8228C25.0866 13.7085 24.8231 13.5894 24.5617 13.4656L24.1697 13.2828C24.0772 13.2383 23.9829 13.1977 23.887 13.1611C23.5994 13.5067 23.3233 13.8919 23.0014 14.168C22.8302 14.3151 22.7133 14.399 22.4605 14.399C22.3824 14.399 22.2857 14.3981 22.1956 14.3468C22.0993 14.2928 22.0088 14.184 21.908 14.0306C21.8317 13.9138 21.7189 13.7649 21.6204 13.5994C21.4148 13.2547 21.1932 12.8217 20.9934 12.4717C20.7695 12.0779 20.5769 11.7845 20.5506 11.7359C20.5105 11.661 20.4012 11.5687 20.4012 11.5687C20.2915 11.7475 20.2108 12.0922 20.2108 12.2822L19.8197 12.1497C19.8715 11.8911 19.9754 11.5571 20.0324 11.3961C20.0324 11.2579 19.8772 11.0737 19.7506 11.0737C19.5722 11.0737 19.3885 11.2695 19.2962 11.6436L18.8993 11.8162C18.9457 11.2119 19.1522 10.5506 19.7506 10.5506C20.234 10.5506 20.5332 10.919 20.7633 11.2641C20.9929 11.6084 21.747 12.6384 21.9075 12.8396L22.2068 13.2186C22.2589 13.4554 22.3593 13.5923 22.4079 13.6681C22.5118 13.8291 22.6268 13.8179 22.782 13.6734C22.8529 13.6083 23.0808 13.4228 23.3015 13.1927C23.4932 12.9925 23.6796 12.7495 23.7545 12.6264C23.9739 12.725 24.3829 12.9207 24.7119 13.0652C23.2997 11.3252 21.9477 9.21332 21.3613 7.777C21.1187 7.18348 21.5927 6.98459 21.8215 7.56964C22.4431 9.15757 24.2607 11.9651 25.5953 13.4371C27.1382 15.1396 29.9676 17.6029 31.8084 18.5924C31.5417 18.0716 31.189 17.3242 30.7823 16.4578C28.5433 15.1914 26.2803 12.8659 25.2256 10.8681L25.6894 10.9216C26.6713 12.6576 29.016 14.9733 30.4015 15.6466C29.1351 12.9591 27.4865 9.55266 26.2 8.08736C24.604 6.27022 22.8614 4.86467 22.0288 4.13336C21.2083 3.4123 20.8703 2.50753 19.6891 2.50753C18.7147 2.50753 18.2028 3.20896 18.0075 3.91709C17.9669 4.05532 17.9442 4.14139 17.8465 4.28498L17.3863 4.83747L18.3812 4.71663L17.8055 5.52197C17.8055 5.52197 19.3653 5.17192 19.9116 5.91304C20.4993 6.71213 20.1198 7.60933 21.0848 9.35333C21.5093 10.1199 22.5358 11.4982 22.8792 11.8041L22.2063 13.2186L21.9075 12.8396ZM6.57671 13.0808L6.34082 12.9207C6.53899 12.7617 6.75749 12.6299 6.99053 12.5288C7.11594 12.4773 7.24968 12.4492 7.38517 12.4458C7.6496 12.4458 7.87747 12.5564 8.09999 12.675C8.45182 12.8623 8.84691 13.0826 9.14969 13.0826C9.26474 13.0826 9.37622 13.0554 9.50643 13.0554C9.80609 13.0554 10.0937 13.1896 10.2583 13.1896C10.3581 13.1896 10.4273 13.1 10.4928 13.0059C10.6578 12.7682 10.8857 12.5921 11.1769 12.4703C11.4894 12.3397 11.8654 12.2875 12.2743 12.2875C12.5962 12.2875 12.9052 12.3339 13.0662 12.3687C13.0662 12.3687 12.8205 12.6648 12.759 12.7303C12.4339 12.7303 11.8145 12.7192 11.4168 12.8801C11.1724 12.9787 11.085 13.1205 11.085 13.3234C11.085 13.6159 11.4123 13.731 11.7771 13.8415C11.992 13.9067 12.2332 13.9227 12.4366 13.9227C12.6872 13.9227 13.1675 13.8286 13.6419 13.7243C14.2149 13.5981 14.7474 13.4474 14.903 13.3898L15.1099 13.7617C14.4722 13.9776 13.8203 14.1822 13.2152 14.3053C12.8731 14.3749 12.5472 14.4177 12.2564 14.4177C11.7708 14.4177 11.2437 14.2139 10.8103 14.0074C10.4446 13.8331 10.1187 13.661 9.82704 13.661C9.49929 13.661 9.19116 13.7742 8.88749 13.9477C8.73899 14.0328 8.29084 14.3414 7.89174 14.4979C7.58539 14.6197 7.33567 14.687 7.02531 14.687C6.74884 14.687 6.58385 14.6478 6.44071 14.5363L6.92141 14.242C6.98339 14.3031 7.09443 14.3142 7.1631 14.3142C7.23222 14.3142 7.31472 14.3053 7.50334 14.2273C7.61125 14.1818 7.76822 14.0855 7.86008 14.0262C8.05004 13.9035 8.11292 13.8317 8.18783 13.7729C8.3332 13.6578 8.38671 13.5053 8.20121 13.3399C8.11039 13.2542 8.01154 13.1774 7.90601 13.1107C7.73968 13.0112 7.61973 12.914 7.31917 12.914C6.96422 12.9127 6.71406 13.0103 6.57671 13.0808Z" fill="#2D2D2D"/>
<path fill-rule="evenodd" clip-rule="evenodd" d="M13.2735 13.2717C13.2735 13.2717 12.9876 13.1923 12.8877 13.1847C13.0677 12.9461 13.2853 12.7384 13.5321 12.5698C13.9223 12.3058 14.3308 12.1613 14.9488 12.1239C15.1169 12.1136 15.4594 12.081 15.6507 12.0891C15.8233 12.0971 16.1149 12.1083 16.3833 12.1577C16.5733 12.1934 16.7503 12.2465 16.8975 12.2692C16.9871 12.2831 17.2988 12.2786 17.4072 12.2612C17.8446 12.1925 18.3699 12.0235 18.6464 11.8728L18.7615 12.2933C18.1706 12.5948 17.5031 12.8855 16.8921 12.8855C16.5809 12.8855 16.2505 12.8619 15.9423 12.8333C15.3992 12.7811 14.9292 12.7089 14.7673 12.7089C14.3276 12.7089 13.6949 12.9136 13.2735 13.2717ZM12.8374 15.6101L12.2817 15.3559C13.0523 14.9657 14.2295 14.5747 14.7125 14.4971C15.1958 14.4213 15.7483 14.3628 16.0663 14.2558C16.2121 14.6241 16.5002 15.0179 16.9144 15.0179C17.0656 15.0179 17.314 14.9037 17.5637 14.7932C17.8442 14.6696 18.126 14.5345 18.2718 14.469C18.4297 14.3994 18.9416 14.1747 19.3755 13.9811C19.5926 13.8825 19.8083 13.7808 20.0225 13.6761L20.3142 13.834C20.2268 14.217 20.0809 14.6884 19.9168 15.0255C19.8526 15.1579 19.7884 15.2667 19.7193 15.3452C19.5927 15.4879 19.388 15.6779 19.1209 15.8669C18.8292 16.0743 18.4738 16.2866 18.0966 16.5028C17.8027 16.6727 17.5071 16.8444 17.2074 16.9817L17.0518 16.6995C17.5138 16.4382 17.9833 16.1073 18.3962 15.8014C18.5916 15.6569 18.7806 15.5106 18.9157 15.3867C19.0161 15.2953 19.079 15.2195 19.1289 15.1454C19.2515 14.9653 19.4513 14.6126 19.5124 14.4435C19.3403 14.5278 18.6883 14.8355 18.3967 14.988C18.0676 15.1615 17.5338 15.4331 17.2346 15.5749C16.9992 15.6854 16.7891 15.7465 16.6384 15.7465C16.3044 15.7465 16.1528 15.5062 16.0707 15.3608C15.8598 14.9845 15.6337 14.9497 15.0389 14.9421C14.3486 14.9336 13.4015 15.219 12.8374 15.6101ZM16.0801 13.8754C16.0801 13.8754 15.9994 13.5472 15.9611 13.4277C15.9611 13.4277 16.0569 13.3965 16.1836 13.3965C16.3905 13.3965 16.902 13.454 17.1142 13.454C17.9133 13.454 18.2081 13.2025 18.4426 12.9907C18.6428 12.8106 18.8484 12.6634 19.392 12.6634C19.8714 12.6634 20.4216 12.857 20.579 12.9332L20.5447 13.3698C20.2858 13.2314 19.9976 13.1568 19.7041 13.1522C19.5061 13.1522 19.3278 13.1678 19.202 13.2333C19.0607 13.3064 18.9746 13.4161 18.8417 13.5249C18.7008 13.6409 18.5077 13.7533 18.2549 13.8465C18.002 13.9397 17.689 14.0034 17.2221 14.0034C16.6059 14.0025 16.2719 13.8995 16.0801 13.8754Z" fill="#2D2D2D"/>
<path fill-rule="evenodd" clip-rule="evenodd" d="M11.0192 17.1708L11.3875 17.0183C11.7251 17.149 12.2129 17.297 12.5522 17.297C12.7565 17.297 12.925 17.2239 13.0637 17.1619C13.1725 17.1133 14.3997 16.5113 15.0088 16.2901C15.2024 16.2206 15.399 16.1813 15.4944 16.1813C15.6403 16.1813 15.6487 16.2464 15.6898 16.3138C15.8048 16.4975 16.7109 17.7907 16.8028 17.8901C17.5711 17.6542 18.3582 17.3082 18.8121 16.873C19.2852 16.4168 19.6781 15.8888 20.0576 15.4803C20.2038 15.3225 20.3849 15.1798 20.4745 15.1321C20.8674 14.9229 22.0892 14.9055 22.6029 14.9283L22.2983 15.3595C21.3931 15.3595 20.8865 15.4527 20.6587 15.6244C20.5624 15.6966 20.417 15.8429 20.2783 16.0235C19.9693 16.4266 19.6317 16.9782 19.4966 17.0861C19.7615 17.2698 20.0513 17.4308 20.5111 17.4308C21.2781 17.4308 21.8274 16.951 22.1284 16.6799L22.3862 16.8333C22.1958 17.0808 21.9777 17.334 21.6999 17.5231C21.3918 17.7323 21.0034 17.8678 20.7737 17.9316C20.3287 17.8473 19.3486 17.6493 19.1189 17.6034C18.2712 17.949 16.8906 18.5073 16.4269 18.6468C16.3243 18.6725 16.2197 18.689 16.1143 18.6963C15.7477 18.7164 15.238 18.7137 14.7738 18.7084C14.4443 18.7039 14.1326 18.7057 13.9761 18.6772L13.5672 18.2504C13.9279 18.3191 14.0684 18.34 14.4055 18.34C15.2033 18.34 15.7165 18.2067 15.886 18.1635C16.0282 18.1269 16.0519 18.0448 16.0095 17.916C15.9422 17.7113 15.824 17.5169 15.6443 17.3091C15.5215 17.1754 15.3867 17.0533 15.2416 16.9443C15.1319 16.8694 15.0249 16.8502 14.7239 16.9532C14.4447 17.0482 13.5788 17.5169 13.2055 17.7153C13.0209 17.8139 12.8773 17.8424 12.546 17.7639C12.1951 17.6814 11.3558 17.3746 11.0192 17.1708ZM13.4205 7.55982C13.5038 7.55982 13.5838 7.52669 13.6428 7.46774C13.7017 7.40878 13.7348 7.32882 13.7348 7.24544C13.7348 7.16206 13.7017 7.0821 13.6428 7.02314C13.5838 6.96418 13.5038 6.93106 13.4205 6.93106C13.3371 6.93106 13.2571 6.96418 13.1982 7.02314C13.1392 7.0821 13.1061 7.16206 13.1061 7.24544C13.1061 7.32882 13.1392 7.40878 13.1982 7.46774C13.2571 7.52669 13.3371 7.55982 13.4205 7.55982Z" fill="#2D2D2D"/>
</svg>
