<svg width="63" height="46" viewBox="0 0 63 46" fill="none" xmlns="http://www.w3.org/2000/svg">
<path d="M0.5 30.2414C0.5 38.5663 6.61624 45.532 13.7519 45.532C20.7176 45.532 25.9844 40.2653 25.9844 33.4694C25.9844 26.1639 19.5283 21.237 11.0335 20.7273C13.2422 15.2906 16.9799 9.51416 24.2854 2.20864L22.0768 0C7.97541 7.9851 0.5 20.0477 0.5 30.2414ZM36.8577 30.2414C36.8577 38.5663 42.9739 45.532 50.1095 45.532C57.0753 45.532 62.342 40.2653 62.342 33.4694C62.342 26.1639 55.886 21.237 47.3912 20.7273C49.5999 15.2906 53.3376 9.51416 60.6431 2.20864L58.4344 0C44.3331 7.9851 36.8577 20.0477 36.8577 30.2414Z" fill="#2D2D2D"/>
</svg>
