<svg width="165" height="32" viewBox="0 0 165 32" fill="none" xmlns="http://www.w3.org/2000/svg">
<path d="M7.074 9.256C8.298 9.256 9.384 9.532 10.332 10.084C11.292 10.624 12.036 11.386 12.564 12.37C13.104 13.342 13.374 14.452 13.374 15.7C13.374 16.948 13.104 18.064 12.564 19.048C12.036 20.02 11.292 20.782 10.332 21.334C9.384 21.874 8.298 22.144 7.074 22.144C5.838 22.144 4.74 21.874 3.78 21.334C2.832 20.782 2.088 20.02 1.548 19.048C1.02 18.064 0.756 16.948 0.756 15.7C0.756 14.452 1.02 13.342 1.548 12.37C2.088 11.386 2.832 10.624 3.78 10.084C4.74 9.532 5.838 9.256 7.074 9.256ZM7.074 10.174C5.994 10.174 5.052 10.402 4.248 10.858C3.444 11.302 2.826 11.944 2.394 12.784C1.962 13.612 1.746 14.584 1.746 15.7C1.746 16.804 1.962 17.776 2.394 18.616C2.826 19.444 3.444 20.092 4.248 20.56C5.052 21.016 5.994 21.244 7.074 21.244C8.142 21.244 9.078 21.016 9.882 20.56C10.686 20.092 11.304 19.444 11.736 18.616C12.168 17.776 12.384 16.804 12.384 15.7C12.384 14.584 12.168 13.612 11.736 12.784C11.304 11.944 10.686 11.302 9.882 10.858C9.09 10.402 8.154 10.174 7.074 10.174ZM7.056 11.596C6.3 11.596 5.622 11.764 5.022 12.1C4.422 12.436 3.948 12.916 3.6 13.54C3.264 14.152 3.096 14.866 3.096 15.682C3.096 16.498 3.264 17.218 3.6 17.842C3.948 18.466 4.422 18.946 5.022 19.282C5.622 19.618 6.3 19.786 7.056 19.786C7.98 19.786 8.778 19.534 9.45 19.03C10.122 18.514 10.56 17.836 10.764 16.996H8.55C8.418 17.332 8.226 17.59 7.974 17.77C7.734 17.95 7.41 18.04 7.002 18.04C6.45 18.04 6.012 17.842 5.688 17.446C5.376 17.038 5.22 16.45 5.22 15.682C5.22 14.914 5.376 14.332 5.688 13.936C6.012 13.54 6.45 13.342 7.002 13.342C7.386 13.342 7.71 13.432 7.974 13.612C8.25 13.792 8.442 14.05 8.55 14.386H10.764C10.56 13.522 10.122 12.844 9.45 12.352C8.79 11.848 7.992 11.596 7.056 11.596Z" fill="#2D2D2D"/>
<path d="M25.63 15.7C25.63 14.464 25.906 13.36 26.458 12.388C27.022 11.404 27.784 10.642 28.744 10.102C29.716 9.55 30.802 9.274 32.002 9.274C33.406 9.274 34.636 9.634 35.692 10.354C36.748 11.074 37.486 12.07 37.906 13.342H35.008C34.72 12.742 34.312 12.292 33.784 11.992C33.268 11.692 32.668 11.542 31.984 11.542C31.252 11.542 30.598 11.716 30.022 12.064C29.458 12.4 29.014 12.88 28.69 13.504C28.378 14.128 28.222 14.86 28.222 15.7C28.222 16.528 28.378 17.26 28.69 17.896C29.014 18.52 29.458 19.006 30.022 19.354C30.598 19.69 31.252 19.858 31.984 19.858C32.668 19.858 33.268 19.708 33.784 19.408C34.312 19.096 34.72 18.64 35.008 18.04H37.906C37.486 19.324 36.748 20.326 35.692 21.046C34.648 21.754 33.418 22.108 32.002 22.108C30.802 22.108 29.716 21.838 28.744 21.298C27.784 20.746 27.022 19.984 26.458 19.012C25.906 18.04 25.63 16.936 25.63 15.7ZM45.8904 22.126C44.7144 22.126 43.6344 21.85 42.6504 21.298C41.6664 20.746 40.8864 19.984 40.3104 19.012C39.7344 18.028 39.4464 16.918 39.4464 15.682C39.4464 14.458 39.7344 13.36 40.3104 12.388C40.8864 11.404 41.6664 10.636 42.6504 10.084C43.6344 9.532 44.7144 9.256 45.8904 9.256C47.0784 9.256 48.1584 9.532 49.1304 10.084C50.1144 10.636 50.8884 11.404 51.4524 12.388C52.0284 13.36 52.3164 14.458 52.3164 15.682C52.3164 16.918 52.0284 18.028 51.4524 19.012C50.8884 19.984 50.1144 20.746 49.1304 21.298C48.1464 21.85 47.0664 22.126 45.8904 22.126ZM45.8904 19.876C46.6464 19.876 47.3124 19.708 47.8884 19.372C48.4644 19.024 48.9144 18.532 49.2384 17.896C49.5624 17.26 49.7244 16.522 49.7244 15.682C49.7244 14.842 49.5624 14.11 49.2384 13.486C48.9144 12.85 48.4644 12.364 47.8884 12.028C47.3124 11.692 46.6464 11.524 45.8904 11.524C45.1344 11.524 44.4624 11.692 43.8744 12.028C43.2984 12.364 42.8484 12.85 42.5244 13.486C42.2004 14.11 42.0384 14.842 42.0384 15.682C42.0384 16.522 42.2004 17.26 42.5244 17.896C42.8484 18.532 43.2984 19.024 43.8744 19.372C44.4624 19.708 45.1344 19.876 45.8904 19.876ZM67.8892 9.436V22H65.3692V13.828L62.0032 22H60.0952L56.7112 13.828V22H54.1912V9.436H57.0532L61.0492 18.778L65.0452 9.436H67.8892ZM79.5427 13.324C79.5427 13.996 79.3807 14.626 79.0567 15.214C78.7447 15.802 78.2467 16.276 77.5627 16.636C76.8907 16.996 76.0387 17.176 75.0067 17.176H72.9007V22H70.3807V9.436H75.0067C75.9787 9.436 76.8067 9.604 77.4907 9.94C78.1747 10.276 78.6847 10.738 79.0207 11.326C79.3687 11.914 79.5427 12.58 79.5427 13.324ZM74.8987 15.142C75.5947 15.142 76.1107 14.986 76.4467 14.674C76.7827 14.35 76.9507 13.9 76.9507 13.324C76.9507 12.1 76.2667 11.488 74.8987 11.488H72.9007V15.142H74.8987ZM89.0358 19.606H84.0318L83.2038 22H80.5578L85.0758 9.418H88.0098L92.5278 22H89.8638L89.0358 19.606ZM88.3518 17.59L86.5338 12.334L84.7158 17.59H88.3518ZM104.963 22H102.443L96.7366 13.378V22H94.2166V9.418H96.7366L102.443 18.058V9.418H104.963V22ZM117.443 9.436L113.195 17.626V22H110.675V17.626L106.409 9.436H109.253L111.953 15.178L114.635 9.436H117.443ZM123.689 19.156C124.841 18.196 125.759 17.398 126.443 16.762C127.127 16.114 127.697 15.442 128.153 14.746C128.609 14.05 128.837 13.366 128.837 12.694C128.837 12.082 128.693 11.602 128.405 11.254C128.117 10.906 127.673 10.732 127.073 10.732C126.473 10.732 126.011 10.936 125.687 11.344C125.363 11.74 125.195 12.286 125.183 12.982H122.735C122.783 11.542 123.209 10.45 124.013 9.706C124.829 8.962 125.861 8.59 127.109 8.59C128.477 8.59 129.527 8.956 130.259 9.688C130.991 10.408 131.357 11.362 131.357 12.55C131.357 13.486 131.105 14.38 130.601 15.232C130.097 16.084 129.521 16.828 128.873 17.464C128.225 18.088 127.379 18.844 126.335 19.732H131.645V21.82H122.753V19.948L123.689 19.156ZM133.233 15.268C133.233 13.192 133.605 11.566 134.349 10.39C135.105 9.214 136.353 8.626 138.093 8.626C139.833 8.626 141.075 9.214 141.819 10.39C142.575 11.566 142.953 13.192 142.953 15.268C142.953 17.356 142.575 18.994 141.819 20.182C141.075 21.37 139.833 21.964 138.093 21.964C136.353 21.964 135.105 21.37 134.349 20.182C133.605 18.994 133.233 17.356 133.233 15.268ZM140.469 15.268C140.469 14.38 140.409 13.636 140.289 13.036C140.181 12.424 139.953 11.926 139.605 11.542C139.269 11.158 138.765 10.966 138.093 10.966C137.421 10.966 136.911 11.158 136.563 11.542C136.227 11.926 135.999 12.424 135.879 13.036C135.771 13.636 135.717 14.38 135.717 15.268C135.717 16.18 135.771 16.948 135.879 17.572C135.987 18.184 136.215 18.682 136.563 19.066C136.911 19.438 137.421 19.624 138.093 19.624C138.765 19.624 139.275 19.438 139.623 19.066C139.971 18.682 140.199 18.184 140.307 17.572C140.415 16.948 140.469 16.18 140.469 15.268ZM145.662 19.156C146.814 18.196 147.732 17.398 148.416 16.762C149.1 16.114 149.67 15.442 150.126 14.746C150.582 14.05 150.81 13.366 150.81 12.694C150.81 12.082 150.666 11.602 150.378 11.254C150.09 10.906 149.646 10.732 149.046 10.732C148.446 10.732 147.984 10.936 147.66 11.344C147.336 11.74 147.168 12.286 147.156 12.982H144.708C144.756 11.542 145.182 10.45 145.986 9.706C146.802 8.962 147.834 8.59 149.082 8.59C150.45 8.59 151.5 8.956 152.232 9.688C152.964 10.408 153.33 11.362 153.33 12.55C153.33 13.486 153.078 14.38 152.574 15.232C152.07 16.084 151.494 16.828 150.846 17.464C150.198 18.088 149.352 18.844 148.308 19.732H153.618V21.82H144.726V19.948L145.662 19.156ZM155.998 19.156C157.15 18.196 158.068 17.398 158.752 16.762C159.436 16.114 160.006 15.442 160.462 14.746C160.918 14.05 161.146 13.366 161.146 12.694C161.146 12.082 161.002 11.602 160.714 11.254C160.426 10.906 159.982 10.732 159.382 10.732C158.782 10.732 158.32 10.936 157.996 11.344C157.672 11.74 157.504 12.286 157.492 12.982H155.044C155.092 11.542 155.518 10.45 156.322 9.706C157.138 8.962 158.17 8.59 159.418 8.59C160.786 8.59 161.836 8.956 162.568 9.688C163.3 10.408 163.666 11.362 163.666 12.55C163.666 13.486 163.414 14.38 162.91 15.232C162.406 16.084 161.83 16.828 161.182 17.464C160.534 18.088 159.688 18.844 158.644 19.732H163.954V21.82H155.062V19.948L155.998 19.156Z" fill="#2D2D2D"/>
</svg>
